<?xml version="1.0"?>
<svg xmlns="http://www.w3.org/2000/svg" id="Layer_3" enable-background="new 0 0 64 64" height="512px" viewBox="0 0 64 64" width="512px" class=""><g><path d="m47 10c0 2.209-3.791 4-6 4h-4v-4c0-2.209 1.791-4 4-4h6c2.209 0 4 1.791 4 4v4c-2.209 0-4-1.791-4-4z" fill="#f4b2b0" data-original="#F4B2B0"/><g fill="#b3404a"><path d="m4 63h32c1.654 0 3-1.346 3-3v-16c0-1.654-1.346-3-3-3h-5v-3c0-2.757-2.243-5-5-5h-12c-2.757 0-5 2.243-5 5v3h-5c-1.654 0-3 1.346-3 3v16c0 1.654 1.346 3 3 3zm25-16v2h-18v-2h-2v2h-2v-6h26v6h-2v-2zm-4-6h-10v-2h10zm-14-3c0-1.654 1.346-3 3-3h12c1.654 0 3 1.346 3 3v3h-2v-3c0-.552-.448-1-1-1h-12c-.552 0-1 .448-1 1v3h-2zm-8 6c0-.551.449-1 1-1h1v7c0 .552.448 1 1 1h3v2h2v-2h18v2h2v-2h3c.552 0 1-.448 1-1v-7h1c.551 0 1 .449 1 1v16c0 .551-.449 1-1 1h-32c-.551 0-1-.449-1-1z" data-original="#000000" class="active-path" style="fill:#DC3545" data-old_color="#000000"/><path d="m53.707 43.293c-.286-.286-.715-.372-1.09-.217-.373.155-.617.52-.617.924v5h-11v2h12c.552 0 1-.448 1-1v-3.586l6.586 6.586-6.586 6.586v-3.586c0-.552-.448-1-1-1h-12v2h11v5c0 .404.244.769.617.924.124.051.254.076.383.076.26 0 .516-.102.707-.293l9-9c.391-.391.391-1.023 0-1.414z" data-original="#000000" class="active-path" style="fill:#DC3545" data-old_color="#000000"/><path d="m10.293 30.707c.191.191.447.293.707.293.129 0 .259-.025.383-.076.373-.155.617-.52.617-.924v-5h11v-2h-12c-.552 0-1 .448-1 1v3.586l-6.586-6.586 6.586-6.586v3.586c0 .552.448 1 1 1h12v-2h-11v-5c0-.404-.244-.769-.617-.924-.375-.155-.804-.07-1.09.217l-9 9c-.391.391-.391 1.023 0 1.414z" data-original="#000000" class="active-path" style="fill:#DC3545" data-old_color="#000000"/><path d="m51 19c1.654 0 3-1.346 3-3 0-1.302-.839-2.402-2-2.816v-3.184c0-2.757-2.243-5-5-5h-6c-2.757 0-5 2.243-5 5v3.184c-1.161.414-2 1.514-2 2.816 0 1.654 1.346 3 3 3h1.35c.285.803.734 1.527 1.31 2.132-3.22.627-5.66 3.467-5.66 6.868v4c0 .552.448 1 1 1h18c.552 0 1-.448 1-1v-4c0-3.401-2.44-6.241-5.66-6.868.576-.605 1.025-1.329 1.31-2.132zm0-2h-1v-2h1c.551 0 1 .449 1 1s-.449 1-1 1zm-5 6c0 1.103-.897 2-2 2s-2-.897-2-2zm-2-2c-2.206 0-4-1.794-4-4v-2h1c1.612 0 4.21-.876 5.747-2.374.329.531.755.996 1.253 1.37v3.004c0 2.206-1.794 4-4 4zm-6-11c0-1.654 1.346-3 3-3h6c1.654 0 3 1.346 3 3v2.829c-1.164-.413-2-1.525-2-2.829 0-.552-.448-1-1-1s-1 .448-1 1c0 1.391-3.026 3-5 3h-3zm-1 7c-.551 0-1-.449-1-1s.449-1 1-1h1v2zm15 11v3h-2v-4h-2v4h-8v-4h-2v4h-2v-3c0-2.418 1.726-4.439 4.01-4.9.055 2.159 1.819 3.9 3.99 3.9s3.935-1.741 3.99-3.9c2.284.461 4.01 2.482 4.01 4.9z" data-original="#000000" class="active-path" style="fill:#DC3545" data-old_color="#000000"/><path d="m44 1c-10.477 0-19 8.523-19 19s8.523 19 19 19 19-8.523 19-19-8.523-19-19-19zm0 36c-9.374 0-17-7.626-17-17s7.626-17 17-17 17 7.626 17 17-7.626 17-17 17z" data-original="#000000" class="active-path" style="fill:#DC3545" data-old_color="#000000"/></g></g> </svg>
