<?xml version="1.0"?>
<svg xmlns="http://www.w3.org/2000/svg" id="Layer_3" enable-background="new 0 0 64 64" height="512px" viewBox="0 0 64 64" width="512px" class=""><g><path d="m30 14v9c0 3.866-3.134 7-7 7-3.866 0-7-3.134-7-7v-9h4v9c0 1.657 1.343 3 3 3 1.657 0 3-1.343 3-3v-9z" fill="#f4b2b0" data-original="#F4B2B0"/><g fill="#b3404a"><path d="m62 19h-31v-5c0-.553-.448-1-1-1h-4c-.552 0-1 .447-1 1v9c0 1.103-.897 2-2 2s-2-.897-2-2v-9-12c0-.553-.448-1-1-1h-14c-.552 0-1 .447-1 1v17h-3c-.552 0-1 .447-1 1v32c0 .553.448 1 1 1h19v4h-3c-.552 0-1 .447-1 1v4c0 .553.448 1 1 1h28c.552 0 1-.447 1-1v-4c0-.553-.448-1-1-1h-3v-4h1 4 4 10c.552 0 1-.447 1-1v-32c0-.553-.448-1-1-1zm-33-4v2h-2v-2zm-6 12c2.206 0 4-1.794 4-4v-4h2v4c0 3.309-2.691 6-6 6s-6-2.691-6-6v-4h2v4c0 2.206 1.794 4 4 4zm-4-10h-2v-2h2zm-12-14h12v10h-3c-.552 0-1 .447-1 1v9c0 2.953 1.613 5.532 4 6.918v3.082h-12zm20 48h-2v-2.586l2-2zm18 10h-26v-2h26zm-4-4h-18v-4h1 4 4 4 4 1zm-6-6h-2v-8.586l2 2zm6 0v-6.586l2-2v8.586zm8 0v-12.586l2 2v10.586zm12 0h-8v-11c0-.266-.105-.52-.293-.707l-4-4c-.286-.286-.716-.374-1.09-.217-.373.154-.617.52-.617.924v15h-2v-11c0-.404-.244-.77-.617-.924-.375-.156-.804-.069-1.09.217l-4 4c-.188.187-.293.441-.293.707v7h-2v-7c0-.266-.105-.52-.293-.707l-4-4c-.286-.286-.716-.373-1.09-.217-.373.154-.617.52-.617.924v11h-2v-7c0-.404-.244-.77-.617-.924-.375-.157-.804-.07-1.09.217l-4 4c-.188.187-.293.441-.293.707v3h-20v-30h2v13c0 .553.448 1 1 1h14c.552 0 1-.447 1-1v-3.263c.641.166 1.308.263 2 .263 4.411 0 8-3.589 8-8v-2h30z" data-original="#000000" class="active-path" data-old_color="#000000" style="fill:#DC3545"/><path d="m9 5h2v2h-2z" data-original="#000000" class="active-path" data-old_color="#000000" style="fill:#DC3545"/><path d="m15 5h2v2h-2z" data-original="#000000" class="active-path" data-old_color="#000000" style="fill:#DC3545"/><path d="m15 9h2v2h-2z" data-original="#000000" class="active-path" data-old_color="#000000" style="fill:#DC3545"/><path d="m9 9h2v2h-2z" data-original="#000000" class="active-path" data-old_color="#000000" style="fill:#DC3545"/><path d="m9 13h2v2h-2z" data-original="#000000" class="active-path" data-old_color="#000000" style="fill:#DC3545"/><path d="m9 17h2v2h-2z" data-original="#000000" class="active-path" data-old_color="#000000" style="fill:#DC3545"/><path d="m9 21h2v2h-2z" data-original="#000000" class="active-path" data-old_color="#000000" style="fill:#DC3545"/><path d="m9 25h2v2h-2z" data-original="#000000" class="active-path" data-old_color="#000000" style="fill:#DC3545"/><path d="m9 29h2v2h-2z" data-original="#000000" class="active-path" data-old_color="#000000" style="fill:#DC3545"/><path d="m21.293 43.293 1.414 1.414 9.293-9.293 5.293 5.293c.391.391 1.023.391 1.414 0l9.293-9.293 4.293 4.293c.391.391 1.023.391 1.414 0l3.293-3.293v2.586h2v-5c0-.553-.448-1-1-1h-5v2h2.586l-2.586 2.586-4.293-4.293c-.391-.391-1.023-.391-1.414 0l-9.293 9.293-5.293-5.293c-.391-.391-1.023-.391-1.414 0z" data-original="#000000" class="active-path" data-old_color="#000000" style="fill:#DC3545"/><path d="m27 9h2v2h2v-2h1c.404 0 .769-.243.924-.617s.069-.804-.217-1.09l-2.293-2.293h2.586v-2h-2v-2h-2v2h-1c-.404 0-.769.243-.924.617s-.069.804.217 1.09l2.293 2.293h-2.586z" data-original="#000000" class="active-path" data-old_color="#000000" style="fill:#DC3545"/><path d="m35 13h2v2h2v-2h1c.404 0 .769-.243.924-.617s.069-.804-.217-1.09l-2.293-2.293h2.586v-2h-2v-2h-2v2h-1c-.404 0-.769.243-.924.617s-.069.804.217 1.09l2.293 2.293h-2.586z" data-original="#000000" class="active-path" data-old_color="#000000" style="fill:#DC3545"/></g></g> </svg>
